<svg xmlns="http://www.w3.org/2000/svg" version="1.1" xmlns:xlink="http://www.w3.org/1999/xlink" xmlns:svgjs="http://svgjs.dev/svgjs" width="1000" height="1000" viewBox="0 0 1000 1000"><rect width="1000" height="1000" fill="#1b4571"></rect><g transform="matrix(0.7,0,0,0.7,149.84897959183667,150.19913061224486)"><svg viewBox="0 0 343 343" data-background-color="#1b4571" preserveAspectRatio="xMidYMid meet" height="999" width="1000" xmlns="http://www.w3.org/2000/svg" xmlns:xlink="http://www.w3.org/1999/xlink"><g id="tight-bounds" transform="matrix(1,0,0,1,0.0740000000000407,0.07400000000001228)"><svg viewBox="0 0 342.85155851775386 342.85155851775386" height="342.85155851775386" width="342.85155851775386"><g><svg></svg></g><g><svg viewBox="0 0 342.85155851775386 342.85155851775386" height="342.85155851775386" width="342.85155851775386"><g><path d="M0 171.426c0-94.676 76.75-171.426 171.426-171.426 94.676 0 171.426 76.75 171.426 171.426 0 94.676-76.75 171.426-171.426 171.426-94.676 0-171.426-76.75-171.426-171.426zM171.426 331.666c88.498 0 160.24-71.742 160.24-160.24 0-88.498-71.742-160.24-160.24-160.241-88.498 0-160.24 71.742-160.241 160.241 0 88.498 71.742 160.24 160.241 160.24z" data-fill-palette-color="tertiary" fill="#ffffff" stroke="transparent"></path><ellipse rx="164.56874808852186" ry="164.56874808852186" cx="171.42577925887693" cy="171.42577925887693" fill="#ffffff" stroke="transparent" stroke-width="0" fill-opacity="1" data-fill-palette-color="tertiary"></ellipse></g><g transform="matrix(1,0,0,1,64.84655864529837,109.40960766327844)"><svg viewBox="0 0 213.1584412271571 124.03234319119699" height="124.03234319119699" width="213.1584412271571"><g><svg viewBox="0 0 213.1584412271571 124.03234319119699" height="124.03234319119699" width="213.1584412271571"><g><svg viewBox="0 0 213.1584412271571 124.03234319119699" height="124.03234319119699" width="213.1584412271571"><g><svg viewBox="0 0 213.1584412271571 124.03234319119699" height="124.03234319119699" width="213.1584412271571"><g><svg viewBox="0 0 213.1584412271571 124.03234319119699" height="124.03234319119699" width="213.1584412271571"><g transform="matrix(1,0,0,1,0,0)"><svg width="213.1584412271571" viewBox="3.549999952316284 -35 60.150001525878906 35" height="124.03234319119699" data-palette-color="#1b4571"><path d="M17.85-21.7L28.75 0 20.55 0 12.8-16.15 10.8-13.9 10.8 0 3.55 0 3.55-35 10.75-35 10.75-22.2 20.35-35 28.95-35 17.85-21.7ZM63.7-35L63.7 0 56.45 0 56.45-21.7 50.2-8.2 43.9-8.2 37.65-21.65 37.65 0 30.45 0 30.45-35 38.15-35 47.1-16.25 56.45-35 63.7-35Z" opacity="1" transform="matrix(1,0,0,1,0,0)" fill="#1b4571" class="undefined-text-0" data-fill-palette-color="quaternary" id="text-0"></path></svg></g></svg></g></svg></g></svg></g><g></g></svg></g></svg></g></svg></g><defs></defs></svg><rect width="342.85155851775386" height="342.85155851775386" fill="none" stroke="none" visibility="hidden"></rect></g></svg></g></svg>